<?xml version="1.0" standalone="no"?>
<!DOCTYPE svg PUBLIC "-//W3C//DTD SVG 20010904//EN"
 "http://www.w3.org/TR/2001/REC-SVG-20010904/DTD/svg10.dtd">
<svg version="1.0" xmlns="http://www.w3.org/2000/svg"
 width="256.000000pt" height="256.000000pt" viewBox="0 0 256.000000 256.000000"
 preserveAspectRatio="xMidYMid meet">
<metadata>
Created by potrace 1.14, written by Peter Selinger 2001-2017
</metadata>
<g transform="translate(0.000000,256.000000) scale(0.100000,-0.100000)"
fill="#000000" stroke="none">
<path d="M355 2335 c-51 -18 -120 -91 -134 -141 -15 -55 -15 -923 0 -975 16
-51 62 -105 112 -132 40 -20 54 -21 282 -22 l240 0 3 108 3 107 -216 0 -215 0
0 425 0 425 850 0 850 0 0 -425 0 -425 -105 0 -105 0 0 -111 0 -112 133 5
c153 6 188 18 241 80 56 65 57 78 54 588 -3 509 -1 490 -64 554 -66 65 2 61
-989 63 -758 2 -906 0 -940 -12z"/>
<path d="M1300 2019 c-123 -24 -245 -122 -302 -245 -60 -128 -47 -294 32 -409
36 -52 129 -137 141 -129 5 3 9 30 9 61 0 48 -4 60 -31 91 -123 139 -97 367
54 470 165 114 383 57 469 -123 52 -111 31 -263 -48 -346 -22 -23 -25 -33 -22
-93 l3 -67 48 37 c26 20 65 64 87 97 56 84 73 149 68 262 -3 79 -8 101 -37
159 -87 178 -278 273 -471 235z"/>
<path d="M1333 1691 c-17 -11 -37 -29 -42 -40 -7 -13 -11 -183 -11 -510 0
-270 -2 -491 -5 -491 -3 0 -56 37 -117 83 -62 46 -118 86 -124 90 -24 14 -81
-15 -131 -65 l-51 -53 220 -230 c136 -143 233 -237 256 -247 33 -15 75 -18
352 -18 308 0 317 1 360 22 87 45 99 86 99 323 0 178 -7 235 -36 274 -12 15
-118 81 -251 154 -207 116 -236 129 -291 134 l-61 6 0 231 c0 127 -5 247 -10
267 -21 74 -96 108 -157 70z"/>
</g>
</svg>
